# xmcd
#
# Track frame offsets: 
#        150
#        30045
#        62343
#        87793
#        105280
#        131823
#        157968
#        177995
#        207630
#        229593
#        255205
#        272073
#        290145
#        322183
#
# Disc length: 4676 seconds
#
# Revision: 6
# Processed by: cddbd v1.5.2PL0 Copyright (c) Steve Scherf et al.
# Submitted via: ExactAudioCopy v1.0b4
#
DISCID=b812420e
DTITLE=Junior - Best Of
DYEAR=1995
DGENRE=R&B
TTITLE0=Mama Used To Say [12 Inch Version]
TTITLE1=Too Late [12 Inch Version]
TTITLE2=Somebody [12 Inch Version]
TTITLE3=Oh Louise [7 Inch Mix]
TTITLE4=Baby I Want You Back
TTITLE5=Let Me Know
TTITLE6=I Can't Help It
TTITLE7=Unison [12 Inch Version]
TTITLE8=Communication Breakdown
TTITLE9=Do You Really Want My Love
TTITLE10=Yes (If You Want Me)
TTITLE11=Say That You Care [7 Inch Mix]
TTITLE12=Not Tonight
TTITLE13=Darling You (Don't You Know)
EXTD=
EXTT0=
EXTT1=
EXTT2=
EXTT3=
EXTT4=
EXTT5=
EXTT6=
EXTT7=
EXTT8=
EXTT9=
EXTT10=
EXTT11=
EXTT12=
EXTT13=
PLAYORDER=
